<svg xmlns="http://www.w3.org/2000/svg" version="1.1" xmlns:xlink="http://www.w3.org/1999/xlink" xmlns:svgjs="http://svgjs.dev/svgjs" width="1500" height="1500" viewBox="0 0 1500 1500"><rect width="1500" height="1500" fill="#ffffff"></rect><g transform="matrix(0.6666666666666666,0,0,0.6666666666666666,250.00003351562492,187.66666666666674)"><svg viewBox="0 0 320 360" data-background-color="#ffffff" preserveAspectRatio="xMidYMid meet" height="1687" width="1500" xmlns="http://www.w3.org/2000/svg" xmlns:xlink="http://www.w3.org/1999/xlink"><g id="tight-bounds" transform="matrix(1,0,0,1,0.00001072500003829191,0)"><svg viewBox="0 0 320 360" height="360" width="320"><g><svg></svg></g><g><svg viewBox="0 0 320 360" height="360" width="320"><g><path transform="translate(-21.67367,-1.67367) scale(3.63347,3.63347)" d="M87.84 28.16c-3.42-5.92-31.01-21.84-37.84-21.84-6.83 0-34.41 15.92-37.84 21.84-3.19 5.51-3.19 38.18 0 43.69 3.43 5.91 31.01 21.83 37.84 21.83 6.83 0 34.42-15.92 37.84-21.84 3.19-5.51 3.19-38.17 0-43.68zM91.14 26.25c-3.98-6.88-32.88-23.75-41.14-23.75-8.26 0-37.16 16.87-41.14 23.75-3.86 6.66-3.86 40.84 0 47.5 3.98 6.88 32.88 23.75 41.14 23.75 8.26 0 37.16-16.87 41.14-23.74 3.86-6.67 3.86-40.85 0-47.51zM88.78 72.39c-3.51 6.07-31.78 22.38-38.78 22.38-7 0-35.27-16.32-38.78-22.39-3.27-5.65-3.27-39.13 0-44.78 3.51-6.06 31.78-22.37 38.78-22.37 7 0 35.27 16.32 38.78 22.38 3.27 5.65 3.27 39.13 0 44.78z" fill="#000000" fill-rule="nonzero" stroke="none" stroke-width="1" stroke-linecap="butt" stroke-linejoin="miter" stroke-miterlimit="10" stroke-dasharray="" stroke-dashoffset="0" font-family="none" font-weight="none" font-size="none" text-anchor="none" style="mix-blend-mode: normal" data-fill-palette-color="tertiary"></path></g><g transform="matrix(1,0,0,1,48,110.28768452782707)"><svg viewBox="0 0 224 139.42463094434586" height="139.42463094434586" width="224"><g><svg viewBox="0 0 224 139.42463094434586" height="139.42463094434586" width="224"><g><svg viewBox="0 0 224 139.42463094434586" height="139.42463094434586" width="224"><g transform="matrix(1,0,0,1,0,79.15147331471623)"><svg viewBox="0 0 224 60.27315762962964" height="60.27315762962964" width="224"><g id="textblocktransform"><svg viewBox="0 0 224 60.27315762962964" height="60.27315762962964" width="224" id="textblock"><g><svg viewBox="0 0 224 48.370370370370374" height="48.370370370370374" width="224"><g transform="matrix(1,0,0,1,0,0)"><svg width="224" viewBox="2.1 -32.3 151.19 32.65" height="48.370370370370374" data-palette-color="#e9efe7"><path d="M13.35-32.3Q16.8-32.3 20.5-30.8L20.5-30.8 19.85-26.95 19.15-26.75Q17.7-27.85 16.07-28.45 14.45-29.05 12.85-29.05L12.85-29.05Q11-29.05 9.63-28.3 8.25-27.55 7.53-26.35 6.8-25.15 6.8-23.85L6.8-23.85Q6.8-22.5 7.63-21.48 8.45-20.45 9.7-19.7 10.95-18.95 13.1-17.9L13.1-17.9Q15.8-16.65 17.45-15.58 19.1-14.5 20.28-12.85 21.45-11.2 21.45-8.85L21.45-8.85Q21.45-6.35 20.1-4.25 18.75-2.15 16.3-0.9 13.85 0.35 10.7 0.35L10.7 0.35Q8.6 0.35 6.33-0.23 4.05-0.8 2.1-1.9L2.1-1.9 2.6-6 3.15-6.25Q4.9-4.55 7.03-3.73 9.15-2.9 11.1-2.9L11.1-2.9Q13-2.9 14.48-3.65 15.95-4.4 16.73-5.65 17.5-6.9 17.5-8.3L17.5-8.3Q17.5-10.4 15.9-11.68 14.3-12.95 11.05-14.45L11.05-14.45Q8.4-15.75 6.8-16.78 5.2-17.8 4.05-19.43 2.9-21.05 2.9-23.4L2.9-23.4Q2.9-25.85 4.23-27.9 5.55-29.95 7.93-31.13 10.3-32.3 13.35-32.3L13.35-32.3ZM38.75-24.9L47.5 0 43.75 0 43.15-2.7 41.85-6.4 35.9-6.45 30.6-6.4 29.25-2.9 28.55 0 24.85 0 34.45-24.9 38.75-24.9ZM36.2-9.4L40.8-9.45 36.65-21.25 36.35-21.25 31.8-9.45 36.2-9.4ZM74.55-24.9L74.4-7.8 74.5 0 70.8 0 70.95-7.5 70.9-10.9 57.35-10.85 57.3-7.8 57.4 0 53.7 0 53.85-7.5 53.7-24.9 57.45-24.9 57.35-14.2 64.1-14.15 70.9-14.2 70.8-24.9 74.55-24.9ZM94.14-24.9L102.89 0 99.14 0 98.54-2.7 97.24-6.4 91.29-6.45 85.99-6.4 84.64-2.9 83.94 0 80.24 0 89.84-24.9 94.14-24.9ZM91.59-9.4L96.19-9.45 92.04-21.25 91.74-21.25 87.19-9.45 91.59-9.4ZM120.54-10.05Q123.59-5.4 127.29-0.9L127.29-0.9 127.24-0.4Q125.14 0.25 123.79 0.35L123.79 0.35 123.14-0.05Q119.34-5.8 117.39-9.1L117.39-9.1 112.69-9.05 112.69-7.8 112.79 0 109.09 0 109.24-7.5 109.09-24.9 117.59-24.95Q121.54-24.95 123.67-23.1 125.79-21.25 125.79-17.75L125.79-17.75Q125.79-15.2 124.42-13.2 123.04-11.2 120.54-10.05L120.54-10.05ZM112.79-21.9L112.74-12.15 117.44-12Q121.89-13.25 121.89-17.45L121.89-17.45Q121.89-19.65 120.59-20.75 119.29-21.85 116.64-21.95L116.64-21.95 112.79-21.9ZM144.54-24.9L153.29 0 149.54 0 148.94-2.7 147.64-6.4 141.69-6.45 136.39-6.4 135.04-2.9 134.34 0 130.64 0 140.24-24.9 144.54-24.9ZM141.99-9.4L146.59-9.45 142.44-21.25 142.14-21.25 137.59-9.45 141.99-9.4Z" opacity="1" transform="matrix(1,0,0,1,0,0)" fill="#ffffff" class="wordmark-text-0" data-fill-palette-color="quaternary" id="text-0"></path></svg></g></svg></g><g transform="matrix(1,0,0,1,0,59.789453925925926)"><svg viewBox="0 0 0.48370370370370375 0.48370370370370375" height="0.48370370370370375" width="0.48370370370370375"><g transform="matrix(1,0,0,1,0,0)"><svg width="0.48370370370370375" viewBox="2.88 -4.98 5.659999999999999 5.66" height="0.48370370370370375" data-palette-color="#e9efe7"><path d="M3.74-0.17Q2.88-1.03 2.88-2.2 2.88-3.37 3.74-4.17 4.59-4.98 5.76-4.98 6.93-4.98 7.74-4.17 8.54-3.37 8.54-2.2 8.54-1.03 7.74-0.17 6.93 0.68 5.76 0.68 4.59 0.68 3.74-0.17Z" opacity="1" transform="matrix(1,0,0,1,0,0)" fill="#ffffff" class="slogan-text-1" data-fill-palette-color="quaternary" id="text-1"></path></svg></g></svg></g></svg></g></svg></g><g transform="matrix(1,0,0,1,22.71136,0)"><svg viewBox="0 0 178.57728 67.73238975916067" height="67.73238975916067" width="178.57728"><g><svg xmlns="http://www.w3.org/2000/svg" xmlns:xlink="http://www.w3.org/1999/xlink" version="1.1" x="0" y="0" viewBox="5.213373384085037 32.17 89.94461776503384 34.114999999999995" enable-background="new 0 0 100 100" xml:space="preserve" height="67.73238975916067" width="178.57728" class="icon-icon-0" data-fill-palette-color="quaternary" id="icon-0"><g fill="#e9efe7" data-fill-palette-color="quaternary"><path d="M94.992 52.777c-0.021-0.09-0.084-0.16-0.18-0.217h-2.718c-0.004 0-0.008-0.002-0.012-0.002-0.967-0.037-0.905-2.167-0.823-2.739 0.233-1.639 1.692-1.986 2.125-1.586 0.242 0.223 0.156 1.508-0.145 2.619-0.143 0.526-0.337 1.034 0.47 1.065h0.587c0.514-1.712 1.549-5.881-0.616-9.116-2.214-2.907-8.888-8.793-10.959-9.325-4.188-1.075-19.607-1.306-28.679-1.306-3.403 0-6.909 0.734-6.909 0.734-2.768 0.692-12.276 5.642-16.517 9.468-11.143 1.129-21.594 3.55-23.796 6.854-0.004 0.007-1.135 2.267-1.137 2.275-0.271 0.809-0.394 1.51-0.443 2.186 0.882-0.17 1.756-0.543 2.577-1.029 0.907-0.748 0.722-1.931 1.604-2.974 0.808-0.955 2.454-1.724 3.099-1.582 0.042 0.003 0.085 0.014 0.127 0.035 0.156 0.082 0.217 0.275 0.135 0.433-0.947 1.809-4.108 5.204-7.568 5.776-0.01 1.016 0.103 2.035 0.103 3.338 0 0.104 0.041 0.205 0.113 0.279 0.965 0.992 0.99 1.957 0.991 1.994 0 0.223 0.179 0.402 0.4 0.402 0 0 3.022 0.225 5.482 0.408-0.07-0.426-0.107-0.861-0.107-1.305 0-4.471 3.637-8.107 8.107-8.107s8.107 3.637 8.107 8.107c0 0.525-0.053 1.039-0.148 1.537h41.482c-0.097-0.498-0.149-1.012-0.149-1.537 0-4.471 3.638-8.107 8.108-8.107 4.47 0 8.107 3.637 8.107 8.107 0 0.525-0.052 1.039-0.148 1.537h1.139c0.062 0 0.124-0.014 0.179-0.041l2.193-1.098c0.528-0.012 2.578-0.154 2.578-1.537 0-0.125 0.725 0.021 0.744-0.334C96.12 55.461 94.992 52.777 94.992 52.777zM82.376 42.917c-4.895 0-45.404 1.762-46.393 1.762-0.989 0-1.42-0.698-0.82-1.473 1.031-1.306 9.365-7.475 12.199-8.184 3.872-0.84 16.354-1.253 29.492 0.074 2.277 0.229 4.016 2.025 5.464 3.891C83.858 40.967 84.897 42.917 82.376 42.917z" fill="#ffffff" data-fill-palette-color="quaternary"></path><circle cx="20.304" cy="59.463" r="3.4" fill="#ffffff" data-fill-palette-color="quaternary"></circle><path d="M20.304 52.639c-3.769 0-6.823 3.055-6.823 6.824 0 3.768 3.055 6.822 6.823 6.822 3.768 0 6.823-3.055 6.823-6.822C27.127 55.693 24.071 52.639 20.304 52.639zM20.304 63.504c-2.229 0-4.04-1.812-4.04-4.041s1.812-4.041 4.04-4.041c2.228 0 4.041 1.812 4.041 4.041S22.531 63.504 20.304 63.504z" fill="#ffffff" data-fill-palette-color="quaternary"></path><circle cx="77.716" cy="59.463" r="3.4" fill="#ffffff" data-fill-palette-color="quaternary"></circle><path d="M77.704 52.639c-3.77 0-6.823 3.055-6.823 6.824 0 3.768 3.054 6.822 6.823 6.822 3.769 0 6.822-3.055 6.822-6.822C84.526 55.693 81.473 52.639 77.704 52.639zM77.716 63.504c-2.227 0-4.039-1.812-4.039-4.041s1.812-4.041 4.039-4.041c2.229 0 4.042 1.812 4.042 4.041S79.945 63.504 77.716 63.504z" fill="#ffffff" data-fill-palette-color="quaternary"></path></g></svg></g></svg></g><g></g></svg></g></svg></g></svg></g></svg></g><defs></defs></svg><rect width="320" height="360" fill="none" stroke="none" visibility="hidden"></rect></g></svg></g></svg>