<?xml version="1.0" standalone="no"?>
<!DOCTYPE svg PUBLIC "-//W3C//DTD SVG 20010904//EN"
 "http://www.w3.org/TR/2001/REC-SVG-20010904/DTD/svg10.dtd">
<svg version="1.0" xmlns="http://www.w3.org/2000/svg"
 width="1687.000000pt" height="1687.000000pt" viewBox="0 0 1687.000000 1687.000000"
 preserveAspectRatio="xMidYMid meet">
<metadata>
Created by potrace 1.14, written by Peter Selinger 2001-2017
</metadata>
<g transform="translate(0.000000,1687.000000) scale(0.100000,-0.100000)"
fill="#000000" stroke="none">
<path d="M8428 16526 c-1 -2 -46 -6 -98 -9 -52 -3 -126 -13 -165 -21 -38 -8
-83 -16 -100 -19 -135 -22 -465 -123 -755 -232 -166 -63 -240 -92 -420 -168
-14 -6 -27 -11 -30 -12 -3 -1 -21 -8 -40 -17 -19 -9 -73 -32 -120 -53 -47 -21
-127 -57 -179 -81 -51 -24 -95 -44 -96 -44 -25 0 -770 -376 -1093 -551 -89
-49 -166 -89 -169 -89 -4 0 -14 -6 -22 -14 -9 -7 -56 -35 -106 -61 -49 -27
-107 -59 -127 -72 -21 -12 -39 -23 -41 -23 -12 0 -524 -302 -797 -470 -535
-328 -1197 -778 -1531 -1037 -30 -24 -58 -46 -64 -51 -5 -4 -39 -30 -75 -57
-316 -242 -665 -564 -836 -771 -104 -126 -179 -255 -234 -404 -26 -69 -87
-268 -95 -310 -2 -8 -15 -64 -28 -125 -32 -137 -67 -318 -82 -425 -3 -19 -10
-66 -16 -105 -15 -101 -17 -114 -24 -175 -3 -30 -8 -66 -11 -80 -2 -14 -6 -45
-9 -70 -2 -25 -7 -65 -10 -90 -3 -25 -8 -70 -10 -100 -3 -30 -7 -66 -9 -80 -3
-14 -8 -63 -11 -110 -4 -47 -8 -96 -10 -110 -2 -14 -7 -68 -11 -120 -7 -102
-8 -111 -18 -270 -4 -58 -9 -127 -11 -155 -2 -27 -7 -111 -10 -185 -3 -74 -8
-171 -10 -215 -25 -542 -25 -1767 0 -2219 2 -32 6 -122 10 -200 4 -77 8 -159
10 -181 1 -22 5 -92 9 -155 4 -63 9 -135 11 -160 3 -25 7 -85 10 -135 3 -49 8
-101 10 -115 2 -14 7 -61 10 -105 4 -44 8 -93 10 -110 1 -16 6 -57 9 -90 4
-33 13 -114 21 -180 8 -66 17 -138 19 -160 3 -22 12 -87 21 -145 9 -58 18
-116 20 -130 8 -64 57 -317 89 -465 1 -5 5 -19 9 -30 3 -11 8 -31 11 -45 27
-138 108 -370 173 -495 24 -46 108 -173 122 -185 3 -3 18 -21 33 -40 92 -121
379 -402 568 -556 19 -16 37 -31 40 -34 20 -20 287 -230 435 -341 573 -429
1350 -937 2050 -1338 61 -35 135 -78 165 -96 30 -18 107 -61 170 -95 63 -35
123 -70 133 -78 9 -8 17 -12 17 -8 0 3 17 -4 38 -17 35 -22 135 -76 357 -194
197 -105 680 -345 878 -437 246 -114 245 -113 472 -211 524 -225 1055 -396
1341 -430 33 -4 68 -9 79 -11 25 -5 209 -5 250 0 96 11 142 18 155 21 8 2 31
7 50 10 118 20 397 100 620 177 217 75 629 242 833 337 49 23 90 41 92 41 3 0
154 71 341 160 219 105 508 251 764 388 184 98 220 117 300 162 47 26 112 62
145 80 94 52 378 216 500 288 61 36 119 70 130 76 11 6 52 31 90 54 39 24 77
47 85 52 471 286 1003 636 1345 883 217 157 576 431 631 482 6 5 30 26 54 45
24 19 48 40 54 45 6 6 45 39 86 75 308 267 533 520 628 705 83 163 170 449
226 740 9 44 18 91 21 105 6 30 62 390 69 445 11 87 35 293 41 343 3 28 7 73
10 100 3 26 7 76 10 112 3 36 8 88 10 115 14 149 15 166 30 380 14 196 30 541
41 875 10 279 10 1279 0 1575 -12 363 -23 599 -41 865 -4 47 -8 112 -10 145
-5 74 -16 210 -20 250 -1 17 -6 66 -10 110 -4 44 -9 94 -11 110 -2 17 -6 57
-9 90 -3 33 -8 77 -10 98 -3 20 -7 56 -10 80 -3 23 -8 58 -10 77 -3 19 -7 55
-10 80 -7 64 -15 117 -25 180 -5 30 -11 71 -14 90 -7 45 -17 108 -21 129 -1 9
-11 57 -20 106 -21 114 -24 125 -31 155 -3 14 -10 44 -14 67 -56 264 -163 550
-262 696 -156 231 -547 603 -968 922 -50 39 -97 75 -103 81 -13 11 -157 119
-193 144 -12 8 -82 58 -155 111 -74 53 -186 131 -249 175 -63 43 -116 82 -118
86 -2 4 -7 8 -12 8 -4 0 -82 49 -171 108 -409 271 -957 609 -1269 784 -25 14
-88 50 -140 80 -52 30 -122 69 -155 88 -33 18 -103 56 -155 85 -205 113 -253
139 -480 257 -1158 606 -2181 1001 -2678 1033 -48 4 -92 8 -99 10 -6 2 -13 2
-15 1z m152 -480 c14 -3 41 -8 60 -11 287 -42 901 -264 1469 -531 51 -24 95
-44 97 -44 8 0 685 -337 819 -408 169 -89 302 -160 340 -182 17 -10 59 -33 95
-53 113 -60 180 -98 375 -210 105 -60 206 -118 225 -129 19 -11 126 -75 238
-142 112 -66 216 -129 232 -138 370 -218 1178 -759 1520 -1018 113 -85 382
-299 395 -314 6 -6 37 -33 70 -61 127 -105 318 -294 414 -409 72 -87 181 -283
181 -325 0 -6 4 -19 9 -29 18 -31 69 -224 95 -352 20 -101 27 -139 32 -165 2
-16 7 -37 9 -45 2 -8 7 -37 10 -65 3 -27 10 -72 15 -100 5 -27 12 -74 15 -104
4 -30 8 -62 10 -71 2 -9 6 -41 9 -71 4 -30 9 -70 11 -89 3 -19 7 -60 10 -90 3
-30 8 -73 10 -95 2 -22 7 -70 10 -105 3 -36 7 -81 10 -100 2 -19 7 -73 10
-120 3 -47 8 -105 10 -130 2 -25 7 -92 10 -150 3 -58 8 -125 10 -150 2 -25 7
-108 10 -185 3 -77 8 -169 10 -205 27 -453 27 -1956 0 -2430 -2 -30 -6 -113
-9 -185 -10 -202 -16 -295 -21 -355 -3 -30 -7 -91 -10 -135 -7 -115 -16 -225
-20 -265 -5 -33 -7 -58 -20 -205 -3 -33 -8 -76 -11 -95 -2 -19 -6 -57 -9 -85
-2 -27 -6 -66 -9 -85 -3 -19 -15 -100 -25 -180 -11 -80 -25 -167 -30 -195 -5
-27 -12 -70 -16 -95 -3 -25 -18 -97 -31 -160 -14 -63 -27 -124 -30 -135 -2
-11 -18 -65 -34 -120 -17 -55 -32 -107 -34 -116 -4 -15 -20 -53 -64 -149 -59
-130 -241 -333 -518 -580 -343 -306 -1020 -792 -1704 -1222 -207 -130 -739
-452 -815 -494 -11 -6 -83 -47 -160 -91 -145 -83 -350 -198 -490 -273 -44 -23
-93 -50 -110 -60 -104 -60 -851 -439 -980 -497 -38 -17 -113 -51 -165 -76
-142 -66 -184 -85 -309 -139 -63 -27 -129 -55 -145 -62 -17 -8 -67 -28 -111
-45 -44 -18 -89 -36 -100 -41 -11 -5 -78 -30 -150 -55 -71 -26 -146 -53 -166
-60 -111 -42 -365 -109 -502 -133 -102 -18 -260 -22 -344 -8 -36 5 -137 24
-168 30 -154 32 -606 182 -772 257 -23 10 -45 19 -48 19 -4 0 -79 31 -168 69
-377 161 -894 410 -1312 632 -126 67 -273 144 -325 172 -52 27 -107 58 -122
68 -14 11 -29 19 -32 19 -3 0 -70 36 -147 80 -78 44 -143 80 -146 80 -2 0 -16
8 -31 19 -15 10 -103 62 -197 116 -319 184 -806 483 -1095 674 -80 53 -152
100 -161 106 -9 5 -36 23 -60 40 -24 16 -52 34 -61 40 -86 52 -661 466 -758
547 -19 16 -39 32 -45 36 -79 58 -295 240 -404 341 -250 230 -372 378 -443
536 -50 113 -120 347 -144 485 -2 14 -9 45 -14 70 -22 106 -61 349 -75 475 -3
28 -8 61 -10 75 -3 14 -7 57 -11 95 -3 39 -8 79 -10 90 -2 11 -6 49 -9 85 -3
36 -7 83 -10 105 -2 22 -7 72 -10 110 -3 39 -8 90 -10 115 -14 156 -27 356
-41 620 -3 69 -7 152 -9 185 -28 552 -28 1837 0 2450 6 119 15 301 20 375 3
41 7 113 10 160 5 78 9 126 20 265 9 124 16 203 20 235 4 36 10 93 20 190 8
79 14 130 20 170 2 19 7 55 10 80 17 135 49 340 70 445 13 66 26 131 28 145
37 202 146 495 219 591 156 204 362 403 693 668 336 271 784 587 1285 908 80
51 150 97 157 103 7 5 14 10 17 10 3 0 43 24 88 53 207 134 909 548 1108 655
36 19 70 38 75 42 6 4 42 24 80 45 39 21 93 50 120 65 362 199 938 489 1275
643 156 71 441 195 500 217 19 7 53 21 75 30 164 71 580 213 684 235 9 2 39 9
66 16 160 39 396 56 485 35z"/>
<path d="M8428 15876 c-1 -2 -37 -6 -78 -9 -41 -4 -100 -11 -130 -17 -30 -6
-67 -13 -83 -15 -24 -5 -62 -15 -172 -45 -114 -32 -349 -110 -440 -148 -27
-11 -93 -37 -145 -57 -202 -79 -536 -226 -790 -348 -163 -78 -351 -170 -380
-187 -14 -8 -27 -15 -30 -15 -9 -2 -266 -135 -405 -210 -33 -18 -91 -49 -130
-70 -143 -76 -238 -129 -430 -238 -82 -46 -168 -95 -190 -107 -37 -21 -294
-171 -357 -209 -15 -9 -75 -45 -135 -80 -59 -36 -119 -72 -133 -82 -14 -9
-110 -70 -215 -135 -187 -116 -639 -412 -785 -515 -41 -28 -104 -72 -140 -97
-69 -48 -492 -362 -500 -371 -3 -3 -39 -33 -80 -66 -210 -167 -464 -405 -576
-540 -155 -186 -217 -341 -310 -780 -8 -40 -55 -331 -59 -365 -2 -19 -6 -48
-9 -65 -2 -16 -10 -75 -16 -130 -6 -55 -13 -111 -15 -125 -2 -14 -7 -56 -10
-95 -4 -38 -9 -83 -10 -100 -2 -16 -6 -66 -10 -110 -4 -44 -8 -96 -10 -115
-23 -241 -46 -657 -62 -1130 -10 -293 -10 -1462 0 -1745 14 -393 27 -656 42
-865 3 -36 7 -101 10 -145 3 -44 8 -96 10 -115 2 -19 7 -71 10 -115 4 -44 8
-96 10 -115 3 -19 7 -62 10 -95 3 -33 8 -71 10 -85 2 -14 7 -52 10 -85 3 -33
8 -71 10 -85 2 -14 7 -50 10 -80 6 -45 23 -160 60 -385 2 -11 13 -64 25 -119
12 -54 23 -106 25 -115 10 -52 40 -158 67 -236 86 -253 214 -412 618 -769 102
-90 347 -281 605 -472 147 -109 894 -614 908 -614 2 0 37 -22 78 -49 111 -73
533 -329 734 -446 55 -32 117 -68 137 -81 21 -13 39 -24 41 -24 3 0 53 -28
113 -63 60 -35 141 -81 179 -102 39 -21 104 -57 145 -80 41 -23 125 -68 185
-100 61 -32 124 -66 142 -76 114 -64 664 -342 818 -414 270 -126 361 -167 548
-246 115 -49 211 -89 214 -89 3 0 19 -7 36 -15 161 -74 662 -232 797 -251 8
-1 29 -5 45 -9 61 -14 251 -17 325 -5 41 6 90 14 108 17 110 16 390 100 602
180 125 47 225 86 255 99 17 7 91 38 165 69 74 31 155 66 180 77 25 11 70 32
100 45 238 107 767 367 1045 516 267 142 352 188 463 251 35 20 65 36 67 36 1
0 53 29 114 65 62 36 114 65 116 65 2 0 56 31 121 70 64 38 118 70 120 70 5 0
608 366 717 436 43 27 227 148 409 269 182 121 338 225 346 230 9 6 25 18 36
28 11 9 23 17 27 17 4 0 14 6 21 13 7 7 45 35 83 62 234 164 524 391 724 564
125 108 348 335 408 416 115 153 193 360 257 680 4 17 9 41 12 55 15 72 35
191 40 240 3 30 8 58 9 61 2 3 7 28 10 55 5 45 20 153 30 229 2 17 7 62 10
100 3 39 8 81 10 95 2 14 7 57 10 95 4 39 8 86 10 105 3 19 7 76 10 125 4 50
8 106 10 125 2 19 7 82 10 140 3 58 8 128 10 155 2 28 7 111 10 185 4 74 8
162 10 195 27 451 27 1890 0 2375 -1 30 -6 120 -10 200 -4 80 -8 168 -10 195
-3 58 -16 244 -20 295 -12 146 -17 209 -20 235 -1 17 -6 64 -9 105 -4 41 -9
91 -11 110 -6 44 -13 107 -20 185 -3 33 -8 67 -10 75 -3 8 -7 40 -10 70 -4 45
-47 323 -61 395 -56 297 -119 511 -188 641 -56 106 -128 197 -281 349 -156
157 -233 226 -404 363 -64 51 -133 107 -153 123 -21 17 -73 56 -115 87 -43 31
-83 61 -89 67 -11 10 -61 46 -264 192 -114 81 -642 434 -784 523 -48 30 -102
64 -119 75 -45 29 -346 214 -382 235 -16 9 -110 65 -208 124 -98 58 -180 106
-183 106 -2 0 -28 16 -58 35 -30 19 -59 35 -63 35 -5 0 -24 10 -43 23 -19 13
-60 37 -90 52 -30 16 -66 37 -80 46 -27 17 -97 56 -275 151 -60 32 -117 63
-125 68 -8 5 -51 28 -95 51 -44 23 -102 54 -130 69 -146 80 -698 352 -910 447
-55 25 -122 55 -150 67 -260 118 -574 243 -795 316 -133 45 -328 98 -420 114
-19 3 -46 8 -60 11 -14 3 -54 8 -90 11 -36 3 -70 7 -77 9 -6 2 -13 2 -15 1z"/>
</g>
</svg>
